# xmcd
#
# Track frame offsets: 
#        150
#        26462
#        59852
#        101047
#        133647
#        155767
#        184645
#
# Disc length: 2884 seconds
#
# Revision: 1
# Processed by: cddbd v1.5.2PL0 Copyright (c) Steve Scherf et al.
# Submitted via: ExactAudioCopy v0.99pb4
#
DISCID=600b4207
DTITLE=Grant Green - Ballads
DYEAR=2002
DGENRE=Jazz
TTITLE0=My One and Only Love
TTITLE1=God Bless the Child
TTITLE2=My Funny Valentine
TTITLE3=Little Girl Blue
TTITLE4=Born to Be Blue  
TTITLE5=Nancy (With the Laughing Face)
TTITLE6='Round Midnight
EXTD=YEAR: 2002
EXTT0=
EXTT1=
EXTT2=
EXTT3=
EXTT4=
EXTT5=
EXTT6=
PLAYORDER=
